<?xml version="1.0" standalone="no"?><!DOCTYPE svg PUBLIC "-//W3C//DTD SVG 1.1//EN" "http://www.w3.org/Graphics/SVG/1.1/DTD/svg11.dtd"><svg t="1620718826215" class="icon" viewBox="0 0 1024 1024" version="1.1" xmlns="http://www.w3.org/2000/svg" p-id="3254" xmlns:xlink="http://www.w3.org/1999/xlink" width="200" height="200"><defs><style type="text/css"></style></defs><path d="M773.9392 301.8752m-200.0384 0a200.0384 200.0384 0 1 0 400.0768 0 200.0384 200.0384 0 1 0-400.0768 0Z" fill="#FFCC2D" p-id="3255"></path><path d="M924.4672 706.2528a24.32 24.32 0 0 1-24.2688 24.2688h-145.7664a24.3712 24.3712 0 0 0-24.2688 24.32 24.2688 24.2688 0 0 0 24.2688 24.2688h48.5888a24.32 24.32 0 0 1 24.2688 24.32 24.32 24.32 0 0 1-24.2688 24.2688h-64.512A388.7616 388.7616 0 0 1 122.88 390.4512h-48.5888a24.32 24.32 0 0 1 0-48.5888h97.28a24.2688 24.2688 0 0 0 6.8096-47.5648l0.768-0.9728H122.88a24.32 24.32 0 1 1 0-48.5888h101.632a388.7616 388.7616 0 0 1 619.52 437.248h56.32a24.32 24.32 0 0 1 24.1152 24.2688z" fill="#F63E48" p-id="3256"></path><path d="M361.5744 545.2288c44.3904-20.48 25.6-74.8032 21.2992-86.6816-6.5536-18.2784-35.84-46.08-65.3824-36.7616-36.9664 11.8784-30.208 67.6352-30.208 67.6352 0.6144 26.3168 30.1568 76.288 74.2912 55.808z m36.8128 103.0656a40.5504 40.5504 0 0 0-1.8432 23.2448 26.5216 26.5216 0 0 0 21.4528 20.7872 13.1072 13.1072 0 0 0 1.9968 0h11.3152a12.9536 12.9536 0 0 0 12.9536-12.9536v-35.2768a12.9536 12.9536 0 0 0-12.9536-12.9536H419.84a13.7728 13.7728 0 0 0-5.12 0.9728 28.9792 28.9792 0 0 0-16.3328 16.1792z m43.6736-195.2768c26.368-2.2528 44.9536-34.304 41.7792-71.68s-26.9824-65.8944-53.2992-63.6416-44.9536 34.304-41.7792 71.68 27.0336 65.8944 53.2992 63.6416z m107.9296 4.7104c35.2768 4.608 57.9584-33.0752 62.4128-61.44s-18.1248-61.44-43.1104-67.2256-56.32 34.304-59.0848 60.4672c-3.328 31.744 4.5568 63.6416 39.7824 68.1984z m86.4256 167.68s-54.5792-42.1888-86.4256-87.808C506.88 470.3232 445.44 497.664 424.96 531.8656s-52.224 55.9104-56.7296 61.44-66.1504 38.912-52.3776 99.3792 61.44 59.2896 61.44 59.2896a268.4928 268.4928 0 0 0 76.1344-5.632 159.7952 159.7952 0 0 1 76.0832 2.2528s95.5392 31.9488 121.6512-29.5936-14.7456-93.5936-14.7456-93.5936zM409.6 716.8a41.728 41.728 0 0 1-38.7584-25.088 78.2336 78.2336 0 0 1-4.6592-35.4816 102.4 102.4 0 0 1 2.7136-16.64 44.9536 44.9536 0 0 1 40.96-32.256c4.4544-0.5632 22.1696 0 22.1696 0a12.9536 12.9536 0 0 0 12.9536-12.9536v-14.4896a12.9536 12.9536 0 0 1 13.1584-13.0048h2.2016a12.9536 12.9536 0 0 1 12.8 12.9536v116.992a20.48 20.48 0 0 1-20.48 20.48z m78.6944-25.6v-67.6352a12.9024 12.9024 0 0 1 12.7488-12.9536h3.072a12.9536 12.9536 0 0 1 13.2096 12.9536v53.9136a12.8512 12.8512 0 0 0 8.448 12.1856 11.8784 11.8784 0 0 0 3.9936 0.6656h14.9504a12.9536 12.9536 0 0 0 12.9536-12.9536v-53.6064a12.9536 12.9536 0 0 1 12.9536-12.9536h5.12a12.9536 12.9536 0 0 1 12.9536 12.9536v68.2496a24.6272 24.6272 0 0 1-24.6272 24.6272h-50.5344a25.6 25.6 0 0 1-25.3952-25.4464z m206.1824-169.728c5.4784-12.4928 11.6736-54.6816-26.8288-71.68s-59.4944 16.4864-70.5536 41.728c-10.496 23.9616-23.1936 58.3168 25.1904 78.2848s66.5088-35.6352 72.0384-48.2304z" fill="#FFFFFF" p-id="3257"></path></svg>