<?xml version="1.0" standalone="no"?><!DOCTYPE svg PUBLIC "-//W3C//DTD SVG 1.1//EN" "http://www.w3.org/Graphics/SVG/1.1/DTD/svg11.dtd"><svg t="1620719059700" class="icon" viewBox="0 0 1150 1024" version="1.1" xmlns="http://www.w3.org/2000/svg" p-id="6757" xmlns:xlink="http://www.w3.org/1999/xlink" width="224.609375" height="200"><defs><style type="text/css"></style></defs><path d="M742.33 157.51H459.4c-0.69 0-1.34 0.16-2.02 0.2h-8.33c-94.11 0-168.33 102.32-173.49 235.44H174.38c-95.95 0-174 78.05-174 174h0.9c-0.75 2.55-1.28 5.2-1.28 8v119.73c0 35.35 28.76 64.1 64.11 64.1h106.98c14.06 61.61 69.2 107.77 135.01 107.77s120.95-46.16 135.01-107.77h278.76c18.73 54.38 70.29 93.62 130.95 93.62 60.66 0 112.22-39.24 130.95-93.62H1085.9c35.35 0 64.1-28.75 64.1-64.1V565.17c0-224.79-182.88-407.66-407.67-407.66zM1047.76 393.3h-206.5c-27.44 0-49.77-22.32-49.77-49.77 0-27.44 22.32-49.77 49.77-49.77h122.92c33.7 27.6 62.03 61.4 83.58 99.54zM357.48 289.29v4.48h199.09c27.44 0 49.77 22.32 49.77 49.77 0 27.44-22.32 49.77-49.77 49.77h-129.7v-0.15h-94.43c1.86-38.7 10.96-74.55 25.04-103.87z m-51.39 520.55c-45.03 0-81.68-36.64-81.68-81.68s36.64-81.67 81.68-81.67 81.68 36.63 81.68 81.67-36.64 81.68-81.68 81.68z m544.72-14.14c-45.03 0-81.68-36.64-81.68-81.68s36.64-81.68 81.68-81.68 81.68 36.64 81.68 81.68-36.64 81.68-81.68 81.68z m242.28-100.82c0 3.96-3.22 7.19-7.19 7.19h-97.11c-6.09-70.83-65.6-126.64-137.98-126.64s-131.89 55.8-137.98 126.64h-270.7c-12.25-63.97-68.55-112.48-136.04-112.48S182.3 638.1 170.05 702.07H64.1c-3.96 0-7.2-3.22-7.2-7.19V575.16c0-2.8-0.53-5.45-1.28-8h1.66c0-64.57 52.53-117.1 117.1-117.1H303.1v0.15h253.47c58.82 0 106.67-47.86 106.67-106.67s-47.86-106.67-106.67-106.67H395.61c16.14-14.09 34.32-22.24 53.44-22.24h252.48v-0.2h40.8c43.07 0 84.16 8.18 122.32 22.44h-23.38c-58.83 0-106.67 47.86-106.67 106.67s47.85 106.67 106.67 106.67h232.08c4.14 11.87 7.7 23.98 10.55 36.39H505.42c-13.09 0-23.71 10.62-23.71 23.71 0 13.09 10.62 23.71 23.71 23.71h586.1c0.91 10.28 1.58 20.64 1.58 31.16v129.7z" fill="#666666" p-id="6758"></path></svg>