<?xml version="1.0" standalone="no"?><!DOCTYPE svg PUBLIC "-//W3C//DTD SVG 1.1//EN" "http://www.w3.org/Graphics/SVG/1.1/DTD/svg11.dtd"><svg class="icon" width="200px" height="200.00px" viewBox="0 0 1024 1024" version="1.1" xmlns="http://www.w3.org/2000/svg"><path d="M512 512m-512 0a512 512 0 1 0 1024 0 512 512 0 1 0-1024 0Z" fill="#57BFB5" /><path d="M899.145143 217.6L411.501714 705.097143a73.142857 73.142857 0 1 0 103.424 103.424l487.643429-487.570286a73.142857 73.142857 0 0 0-103.424-103.424z" fill="#394648" /><path d="M514.925714 217.6l487.643429 487.570286a73.142857 73.142857 0 1 1-103.424 103.424L411.501714 321.097143A73.142857 73.142857 0 0 1 514.925714 217.6z" fill="#394648" /></svg>