<?xml version="1.0" standalone="no"?><!DOCTYPE svg PUBLIC "-//W3C//DTD SVG 1.1//EN" "http://www.w3.org/Graphics/SVG/1.1/DTD/svg11.dtd"><svg t="1620719133372" class="icon" viewBox="0 0 1024 1024" version="1.1" xmlns="http://www.w3.org/2000/svg" p-id="8420" xmlns:xlink="http://www.w3.org/1999/xlink" width="200" height="200"><defs><style type="text/css"></style></defs><path d="M857.1 471.5c-10.9 0-21.6 1.1-32 3.1l-3.3-11.5c15.4 7.5 33.5 9.4 50.2 5 18.8-5 34.1-17.6 42-34.6 5.7-12.1 7.7-25.6 5.9-39-5.4-40.6-21.2-99.6-65.6-150.6C804 186 729 151.3 631.5 140.7c-11.9-1.3-22.6 7.1-24.1 19-5.1 41 8.3 85.6 24 121.4-30.9-11.3-68.9-16.8-107.7-2.3-36.3 13.7-64.3 32.9-83 57.3-6.7 8.7-11.1 16.7-13.9 23-23.7 4.9-66.9 8.3-83-13.9-15.8-21.9-15.5-42.1-15.4-44.2 0.6-6.1-1.4-11.9-5.5-16.5-4.2-4.6-10.1-7-16.3-7H111.1c-12.1 0-21.9 9.8-21.9 21.9 0 19.8 10.2 42 30.1 66.2 17.5 21.3 41.7 42.7 69.9 61.9 56.7 38.7 120.9 63 179.8 68.6l-15.2 91.4h-27.9c-16.8-73.2-82.5-128-160.7-128C74.4 459.5 0.5 533.3 0.5 624.2S74.4 789 165.2 789c88.5 0 160.9-70.2 164.6-157.7h281.7c11.1 0 21.6-4.9 28.7-13.4l134.4-161.3 9.2 32.2c-54.1 27-91.4 83-91.4 147.4 0 90.8 73.9 164.7 164.7 164.7s164.7-73.9 164.7-164.7-73.9-164.7-164.7-164.7zM165.2 745.3c-66.7 0-121-54.3-121-121s54.3-121 121-121c53.9 0 99.7 35.4 115.3 84.2H155.4c-12.1 0-21.9 9.8-21.9 21.9 0 12.1 9.8 21.9 21.9 21.9H286c-3.6 63.5-56.4 114-120.8 114z m601-347.3c-0.1 0.2-0.2 0.4-0.4 0.6L608.5 587.5H398.1l18.1-108.6c1-6.3-0.7-12.8-4.9-17.7-4.2-4.9-10.3-7.7-16.7-7.7-56.9 0-122.8-22.7-180.8-62.2-38.8-26.4-61.6-51.7-72.6-70h145.4c2.6 13.5 8.5 31.3 21.8 49.6 17.7 24.4 48.6 36.7 89.2 35.6 27.8-0.8 51.1-7.6 52.1-7.9 8-2.4 13.8-8.3 15.2-16.5 1-3.5 11.9-38.8 74.3-62.2 64.7-24.3 133.7 34.5 134.3 35.1 8.3 7.3 20.8 7.2 29-0.2s9.6-19.7 3.3-28.8c-15.5-22.1-51.4-84.8-55.3-138.5 74.7 11.9 132.1 40.6 170.9 85.2 37.2 42.8 50.6 93 55.2 127.6 0.7 5.2-0.1 10.2-2.2 14.8-3.1 6.8-9.1 9.6-13.5 10.8-8 2.1-16.8 0.5-23.6-4.3l-40.2-28.4c-0.7-0.5-1.4-1-2.1-1.4-0.1-0.1-0.3-0.2-0.4-0.3l-1.2-0.6c-0.6-0.3-1.2-0.5-1.8-0.8-9.1-3.3-19.5-0.4-25.4 7.9z m90.9 359.2c-66.7 0-121-54.3-121-121 0-44.5 24.1-83.4 60-104.4l33.3 116.7c2.7 9.6 11.5 15.9 21 15.9 2 0 4-0.3 6-0.8 11.6-3.4 18.3-15.5 15-27.1l-34.2-119.7c6.5-1.1 13.1-1.6 19.9-1.6 66.7 0 121 54.3 121 121s-54.3 121-121 121z" p-id="8421"></path><path d="M519.4 388.9c-12.1 0-21.9 9.8-21.9 21.9v99.3c0 12.1 9.8 21.9 21.9 21.9s21.9-9.8 21.9-21.9v-99.3c0-12.1-9.8-21.9-21.9-21.9zM602.2 388.9c-12.1 0-21.9 9.8-21.9 21.9v99.3c0 12.1 9.8 21.9 21.9 21.9s21.9-9.8 21.9-21.9v-99.3c0-12.1-9.8-21.9-21.9-21.9z" p-id="8422"></path></svg>