<?xml version="1.0" standalone="no"?><!DOCTYPE svg PUBLIC "-//W3C//DTD SVG 1.1//EN" "http://www.w3.org/Graphics/SVG/1.1/DTD/svg11.dtd"><svg class="icon" width="200px" height="200.00px" viewBox="0 0 1024 1024" version="1.1" xmlns="http://www.w3.org/2000/svg"><path d="M528 32a48 48 0 0 1 48 48v272h-96V80a48 48 0 0 1 48-48z" fill="#5866D0" /><path d="M192 352h640a64 64 0 0 1 64 64v96H128v-96a64 64 0 0 1 64-64z" fill="#F17254" /><path d="M128 576h768l64 416h-96l-48-304c1.184 2.336-66.592 0-80 0 1.568 2.656 32.832 302.688 32 304H64l64-416z" fill="#5866D0" /></svg>